# xmcd
#
# Track frame offsets: 
#        150
#        21341
#        38612
#        57799
#        75610
#        108283
#        127402
#        143340
#        164644
#        182781
#        207003
#
# Disc length: 3055 seconds
#
# Revision: 1
# Processed by: cddbd v1.5.2PL0 Copyright (c) Steve Scherf et al.
# Submitted via: ExactAudioCopy v1.3
#
DISCID=910bed0b
DTITLE=Erja Lyytinen - Stolen Hearts
DYEAR=2017
DGENRE=Blues
TTITLE0=Stolen Hearts
TTITLE1=Rocking Chair
TTITLE2=Love Laboratory
TTITLE3=24 Angels
TTITLE4=Black Ocean
TTITLE5=Slowly Burning
TTITLE6=Lover's Novels
TTITLE7=Silver Stones
TTITLE8=Awakening
TTITLE9=City Of Angels
TTITLE10=Broken Eyes
EXTD=
EXTT0=
EXTT1=
EXTT2=
EXTT3=
EXTT4=
EXTT5=
EXTT6=
EXTT7=
EXTT8=
EXTT9=
EXTT10=
PLAYORDER=
